<?xml version="1.0" standalone="no"?>
<!DOCTYPE svg PUBLIC "-//W3C//DTD SVG 20010904//EN"
 "http://www.w3.org/TR/2001/REC-SVG-20010904/DTD/svg10.dtd">
<svg version="1.0" xmlns="http://www.w3.org/2000/svg"
 width="500.000000pt" height="500.000000pt" viewBox="0 0 500.000000 500.000000"
 preserveAspectRatio="xMidYMid meet">
<metadata>
Created by potrace 1.14, written by Peter Selinger 2001-2017
</metadata>
<g transform="translate(0.000000,500.000000) scale(0.100000,-0.100000)"
fill="#00375A" stroke="none">
<path d="M2305 4994 c-16 -2 -73 -9 -125 -15 -693 -78 -1357 -491 -1755 -1089
-220 -330 -343 -655 -401 -1055 -26 -179 -24 -515 4 -700 81 -525 310 -989
677 -1374 315 -330 784 -596 1228 -695 544 -122 1115 -68 1592 153 294 135
502 278 728 500 486 476 747 1098 747 1781 0 399 -78 740 -250 1095 -361 742
-1056 1253 -1880 1380 -100 16 -495 29 -565 19z m-799 -1539 c259 -45 477
-178 518 -316 45 -150 -67 -279 -242 -279 -74 1 -124 24 -191 90 -29 28 -77
63 -106 76 -130 60 -362 47 -462 -25 -75 -54 -101 -147 -58 -208 32 -45 176
-72 388 -73 301 0 483 -60 631 -206 126 -125 176 -233 176 -381 0 -133 -24
-207 -100 -309 -143 -191 -489 -305 -883 -291 -223 8 -371 50 -525 150 -174
113 -246 258 -179 358 47 71 188 138 264 126 51 -9 118 -44 171 -90 99 -86
211 -113 417 -104 198 10 279 37 324 111 52 83 2 155 -129 188 -19 5 -136 13
-260 18 -251 10 -339 26 -463 83 -146 68 -276 201 -319 327 -33 94 -32 257 0
353 63 181 250 334 472 386 116 27 123 28 306 30 106 0 192 -4 250 -14z m902
-12 c14 -10 35 -32 46 -47 20 -26 21 -42 24 -342 2 -173 4 -314 6 -314 1 0 22
9 45 21 188 90 447 72 622 -44 54 -36 160 -139 190 -186 l15 -23 28 41 c50 72
150 157 235 199 111 56 209 76 330 69 273 -16 492 -188 577 -452 33 -100 37
-245 11 -345 -48 -181 -176 -340 -338 -418 -295 -142 -617 -61 -820 207 l-26
35 -31 -46 c-40 -58 -131 -141 -196 -179 -28 -16 -87 -41 -131 -56 -68 -23
-97 -27 -195 -27 -144 0 -241 29 -354 105 -69 46 -176 151 -176 172 0 5 16 41
35 80 114 238 77 525 -92 708 l-53 57 0 333 c0 188 4 349 10 368 12 41 44 79
85 97 40 19 119 12 153 -13z"/>
<path d="M2724 2491 c-56 -14 -136 -65 -171 -108 -109 -133 -95 -325 31 -441
69 -63 125 -85 217 -86 98 0 167 32 237 109 59 64 82 124 82 212 0 170 -129
308 -297 318 -38 2 -82 1 -99 -4z"/>
<path d="M3835 2491 c-89 -23 -175 -94 -216 -179 -19 -39 -24 -63 -24 -137 0
-78 4 -97 27 -140 32 -63 103 -129 166 -157 71 -31 180 -30 254 4 117 54 181
152 186 286 4 77 2 88 -27 147 -54 110 -152 175 -270 181 -36 2 -79 0 -96 -5z"/>
</g>
</svg>
