<svg xmlns="http://www.w3.org/2000/svg" viewBox="0 0 1920 441.5"><path fill="#fff" d="M1109 126.2c-30.7 21.5-53.1 55.6-53.1 95.4v85.1c3 14 12.9 25.1 27.3 25.1 15.2 0 27.4-12.4 27.4-27.6v-82.8c0-30.7 24.9-54.7 55.1-54.7 30.5 0 54.4 24.5 54.4 54.9v82.6c0 15.2 13 27.6 28.2 27.6 14 0 28-10.5 28-24v-86.2c0-39.8-20.7-74.6-52.9-94-.9-.5-1.7-1.1-2.6-1.6-15.3-9.4-35.1-14.8-55.2-14.8s-36.7 4.4-55.1 13.8m-736 2c-.9-.5-1.2-1.1-2.1-1.6-15.3-9.4-35-14.8-55.1-14.8-20 0-37.4 5.3-55.1 14.6V27.6c0-15.2-12.1-27.6-27.4-27.6-15.2 0-27.4 12.4-27.4 27.6v278.6c3 14 12.9 25.1 27.3 25.1 15.2 0 27.4-12.4 27.4-27.6v-82.8c0-30.7 24.9-54.7 55.1-54.7 30.5 0 54.4 24.5 54.4 54.9v82.6c0 15.2 12.3 27.6 27.5 27.6 14 0 27.2-10.5 27.2-24V221c.1-39.8-19.5-74.6-51.8-94zm1118.3 152.2c10.4-16.8 16.4-36.6 16.4-57.9 0-61-49.4-110.4-110.4-110.4-61 0-110.4 49.4-110.4 110.4 0 61 49.4 110 110.4 110 18.3 0 35.5-3.9 50.7-12.7.3 0 .5 2.8.7 4 .5 2.9.8 6 .8 9 0 30.5-24.7 55.3-55.2 55.3-13 0-24.8-4.4-34.3-11.9-3.3-2.6-6.3-5.5-8.9-8.7-5.1-6.1-12.7-9.9-21.2-9.9-15.2 0-27.6 12.4-27.6 27.6 0 5.7 1.7 11 4.7 15.4.8 1.1 1.6 2.2 2.5 3.2 3.4 4.1 7.1 7.9 11 11.4 19.5 17.5 45.4 28.2 73.7 28.2 46.5 0 86.2-28.8 102.5-69.4 5.1-12.7 7.9-26.5 7.9-40.9 0-19.2-4.8-37.1-13.3-52.7zm-94-2.6c-30.5 0-55.2-24.7-55.2-55.2 0-30.5 24.7-55.2 55.2-55.2 30.5 0 55.2 24.7 55.2 55.2 0 30.5-24.8 55.2-55.2 55.2zM625.6 110.4c-59.7 0-108.2 47.3-110.3 106.5 0 .6-.1 1.3-.1 1.9V414c0 15.2 12.4 27.6 27.6 27.6 15.2 0 27.6-12.4 27.6-27.6v-97.6c16.2 9.4 35.1 14.8 55.2 14.8 61 0 110.4-49.4 110.4-110.4-.1-61-49.5-110.4-110.4-110.4zm0 165.6c-30.5 0-55.2-24.7-55.2-55.2 0-30.5 24.7-55.2 55.2-55.2 30.5 0 55.2 24.7 55.2 55.2 0 30.5-24.8 55.2-55.2 55.2zM96.7 111.3c20.4 0 38.1 3.4 52.9 10.1 24 11.7 34.2 24.8 30.7 39.5-1.4 9.2-8.1 15.3-20.1 18.4-10.6 2.5-19.4.3-26.4-6.4-9.9-12.9-25.7-18.1-47.6-15.6-1.4 0-2.5.3-3.2.9-12 1.2-20.1 6.4-24.3 15.6-2.1 4.9-1.4 10.1 2.1 15.6 8.5 4.9 22.2 7.1 41.2 6.4 11.3 0 19.7.6 25.4 1.8 22.6 1.8 40.9 11.7 55 29.4 9.2 11 13.4 23 12.7 35.9.7 19.6-8.5 35.9-27.5 48.7-7.8 4.9-15.9 8.6-24.3 11-37.4 10.4-70.5 10.4-99.4 0-23.3-9.8-37-21.4-41.2-34.9-2.8-10.4 1.8-18.7 13.7-24.8 11.3-6.1 21.5-5.8 30.7.9 1.4.6 2.5 1.2 3.2 1.8 12 13.5 33.1 18.1 63.4 13.8 12-.6 20.1-4.6 24.3-12 2.8-4.3 2.8-8.9 0-13.8-6.3-6.1-17.6-9.2-33.8-9.2-35.2 1.2-61-4.9-77.2-18.4-17.7-12.7-25.8-29.5-24.4-50.4 0-13.5 4.6-25.4 13.7-35.9 16.2-19.6 42.3-29.1 78.2-28.5h2.2zm761.9-.9c-59.7 0-108.2 47.3-110.3 106.5 0 .6-.1 1.3-.1 1.9V414c0 15.2 12.4 27.6 27.6 27.6 15.2 0 27.6-12.4 27.6-27.6v-97.6c16.2 9.4 35.1 14.8 55.2 14.8 61 0 110.4-49.4 110.4-110.4 0-61-49.4-110.4-110.4-110.4zm0 165.6c-30.5 0-55.2-24.7-55.2-55.2 0-30.5 24.7-55.2 55.2-55.2 30.5 0 55.2 24.7 55.2 55.2 0 30.5-24.7 55.2-55.2 55.2z"></path><circle cx="1012.5" cy="55.4" r="27.6" fill="#55dcff"></circle><path fill="#fff" d="M1012.5 110.6c-15.2 0-27.6 11.5-27.6 25.7v169.4c0 14.2 12.4 25.7 27.6 25.7s27.6-11.5 27.6-25.7v19.5-188.9c0-14.2-12.4-25.7-27.6-25.7z"></path><circle cx="470.8" cy="55.4" r="27.6" fill="#55dcff"></circle><path fill="#fff" d="M470.8 110.6c-15.2 0-27.6 11.5-27.6 25.7v169.4c0 14.2 12.4 25.7 27.6 25.7 15.2 0 27.6-11.5 27.6-25.7v19.5-188.9c0-14.2-12.4-25.7-27.6-25.7z"></path><path fill="#55dcff" d="M1809.6 111.2c-40.5 0-75.8 21.8-95.1 54.3-19.2-32.5-54.4-54.3-94.9-54.3-20 0-40 5.4-54.8 14.7V27.6c0-15.2-12.1-27.6-27.4-27.6-15.2 0-27.4 12.4-27.4 27.6v112c23.7 20.2 36.1 49.4 36.1 81.9 0 22.5-6.9 43.5-18.5 61 19.8 29.8 53.5 49.4 91.9 49.4 40.5 0 75.8-21.8 95-54.3 19.2 32.5 54.6 54.3 95 54.3 61 0 110.4-49.4 110.4-110.4.1-60.9-49.3-110.3-110.3-110.3zm-190.1 165.5c-30.5 0-55.2-24.7-55.2-55.2 0-30.5 24.7-55.2 55.2-55.2 30.5 0 55.2 24.7 55.2 55.2 0 30.5-24.7 55.2-55.2 55.2zm190.1 0c-30.5 0-55.2-24.7-55.2-55.2 0-30.5 24.7-55.2 55.2-55.2 30.5 0 55.2 24.7 55.2 55.2 0 30.5-24.7 55.2-55.2 55.2z"></path></svg>