<?xml version="1.0" encoding="utf-8"?>
<!-- Generator: Adobe Illustrator 26.3.1, SVG Export Plug-In . SVG Version: 6.00 Build 0)  -->
<svg version="1.1" id="Calque_1" xmlns="http://www.w3.org/2000/svg" xmlns:xlink="http://www.w3.org/1999/xlink" x="0px" y="0px"
	 viewBox="0 0 1920 442.72" style="enable-background:new 0 0 1920 442.72;" xml:space="preserve">
<style type="text/css">
	.st0{clip-path:url(#SVGID_00000047043621680080669810000015327171568718133664_);}
	.st1{clip-path:url(#SVGID_00000040570882963886688460000005358539560767739284_);fill:#414247;}
	.st2{clip-path:url(#SVGID_00000040570882963886688460000005358539560767739284_);fill:#33CCFF;}
</style>
<g id="Illustration_1_00000095302744262855292560000004839569902169938096_">
	<g>
		<defs>
			<rect id="SVGID_1_" x="0" y="0" width="1920" height="442.72"/>
		</defs>
		<clipPath id="SVGID_00000113342242839164001590000012533958676103439029_">
			<use xlink:href="#SVGID_1_"  style="overflow:visible;"/>
		</clipPath>
		<g style="clip-path:url(#SVGID_00000113342242839164001590000012533958676103439029_);">
			<defs>
				<rect id="SVGID_00000147926887251267059000000014534804493877801605_" x="0" y="0" width="1920" height="442.72"/>
			</defs>
			<clipPath id="SVGID_00000177445543800413605840000006507687440387785376_">
				<use xlink:href="#SVGID_00000147926887251267059000000014534804493877801605_"  style="overflow:visible;"/>
			</clipPath>
			<path style="clip-path:url(#SVGID_00000177445543800413605840000006507687440387785376_);fill:#414247;" d="M1108.53,126.28
				c-30.75,21.44-53.1,55.71-53.1,95.53v85.21c2.95,14.07,12.93,25.07,27.34,25.07c15.2,0,27.46-12.37,27.46-27.57V221.7
				c0-30.75,24.96-54.8,55.14-54.8c30.52,0,54.46,24.51,54.46,55.03v82.71c0,15.2,13.05,27.57,28.25,27.57
				c14.07,0,28.02-10.44,28.02-24.05v-86.23c0-39.82-20.65-74.66-52.99-94.17c-0.91-0.57-1.7-1.02-2.61-1.59
				c-15.32-9.42-35.17-14.86-55.26-14.86c-20.08,0-36.76,4.43-55.14,13.84"/>
			<path style="clip-path:url(#SVGID_00000177445543800413605840000006507687440387785376_);fill:#414247;" d="M373.3,127.07
				c-0.91-0.57-1.25-1.02-2.04-1.59c-15.32-9.42-35.06-14.86-55.14-14.86c-19.97,0-37.44,5.33-55.14,14.64V27.68
				c0-15.2-12.14-27.57-27.46-27.57c-15.32,0-27.46,12.37-27.46,27.57v193.56v51.96v33.24c2.95,14.07,12.94,25.07,27.34,25.07
				c15.2,0,27.46-12.37,27.46-27.57v-30.75v-52.08c0-30.75,24.96-54.8,55.14-54.8c30.52,0,54.46,24.51,54.46,55.03v82.71
				c0,15.2,12.25,27.57,27.57,27.57c14.07,0,27.23-10.44,27.23-24.05v-86.23C425.26,181.42,405.52,146.59,373.3,127.07"/>
			<path style="clip-path:url(#SVGID_00000177445543800413605840000006507687440387785376_);fill:#414247;" d="M1492.7,279.56
				c10.44-16.79,16.34-36.65,16.34-57.86c0-61.04-49.47-110.51-110.51-110.51s-110.51,49.47-110.51,110.51
				s49.47,110.06,110.51,110.06c18.27,0,35.51-3.86,50.72-12.71c0.23,0,0.45,2.72,0.68,3.97c0.45,2.84,0.79,6.01,0.79,8.96
				c0,30.52-24.73,55.37-55.26,55.37c-12.93,0-24.85-4.42-34.27-11.91c-3.29-2.61-6.35-5.45-8.96-8.74
				c-5.11-6.13-12.71-9.98-21.22-9.98c-15.2,0-27.57,12.37-27.57,27.68c0,5.67,1.7,11.01,4.65,15.43c0.79,1.13,1.59,2.16,2.5,3.18
				c3.4,4.08,7.15,7.94,11.01,11.46c19.52,17.59,45.38,28.25,73.75,28.25c46.52,0,86.34-28.82,102.57-69.55
				c5.11-12.71,7.94-26.55,7.94-40.96C1505.98,313.04,1501.21,295.11,1492.7,279.56 M1398.53,276.84
				c-30.52,0-55.26-24.73-55.26-55.25s24.73-55.25,55.26-55.25s55.26,24.73,55.26,55.25S1429.05,276.84,1398.53,276.84"/>
			<path style="clip-path:url(#SVGID_00000177445543800413605840000006507687440387785376_);fill:#414247;" d="M624.5,110.51
				c-59.68,0-108.36,47.43-110.4,106.65c0,0.68-0.11,1.25-0.11,1.93v195.26c0,15.2,12.37,27.57,27.57,27.57
				c15.2,0,27.57-12.37,27.57-27.57v-97.69c16.23,9.42,35.17,14.86,55.26,14.86c61.04,0,110.51-49.47,110.51-110.51
				C735.01,159.98,685.54,110.51,624.5,110.51 M624.5,276.27c-30.52,0-55.26-24.73-55.26-55.25s24.73-55.26,55.26-55.26
				s55.26,24.73,55.26,55.26S655.02,276.27,624.5,276.27"/>
			<path style="clip-path:url(#SVGID_00000177445543800413605840000006507687440387785376_);fill:#414247;" d="M95.09,111.42
				c20.42,0,38.12,3.4,52.87,10.1c23.94,11.69,34.27,24.85,30.75,39.6c-1.36,9.19-8.17,15.32-20.08,18.38
				c-10.55,2.5-19.4,0.34-26.44-6.47c-9.87-12.93-25.76-18.15-47.65-15.66c-1.36,0-2.5,0.34-3.18,0.91
				c-12.03,1.25-20.08,6.47-24.39,15.66c-2.16,4.88-1.36,10.1,2.16,15.66c8.51,4.88,22.24,7.04,41.3,6.47
				c11.23,0,19.74,0.57,25.42,1.82c22.58,1.82,40.96,11.69,55.03,29.5c9.19,11.01,13.39,23.03,12.71,35.85
				c0.68,19.63-8.51,35.85-27.57,48.79c-7.71,4.88-15.88,8.62-24.39,11.01c-37.44,10.44-70.57,10.44-99.51,0
				c-23.26-9.87-37.1-21.44-41.3-34.95c-2.84-10.44,1.82-18.72,13.73-24.85c11.23-6.13,21.56-5.79,30.75,0.91
				c1.36,0.57,2.5,1.25,3.18,1.82c12.03,13.5,33.13,18.15,63.54,13.84c12.03-0.57,20.08-4.65,24.39-11.91
				c2.84-4.31,2.84-8.85,0-13.84c-6.35-6.13-17.7-9.19-33.92-9.19c-35.29,1.25-61.04-4.88-77.27-18.38
				c-17.59-12.93-25.64-29.73-24.28-50.6c0-13.5,4.54-25.41,13.73-35.85c16.23-19.63,42.32-29.16,78.29-28.48h2.16V111.42z"/>
			<path style="clip-path:url(#SVGID_00000177445543800413605840000006507687440387785376_);fill:#414247;" d="M857.78,110.51
				c-59.68,0-108.36,47.43-110.4,106.65c0,0.68-0.11,1.25-0.11,1.93v195.26c0,15.2,12.37,27.57,27.57,27.57
				c15.2,0,27.57-12.37,27.57-27.57v-97.69c16.23,9.42,35.17,14.86,55.26,14.86c61.04,0,110.51-49.47,110.51-110.51
				C968.29,159.98,918.82,110.51,857.78,110.51 M857.78,276.27c-30.52,0-55.26-24.73-55.26-55.25s24.73-55.26,55.26-55.26
				s55.26,24.73,55.26,55.26S888.3,276.27,857.78,276.27"/>
			<path style="clip-path:url(#SVGID_00000177445543800413605840000006507687440387785376_);fill:#33CCFF;" d="M1011.86,27.91
				c15.23,0,27.57,12.34,27.57,27.57c0,15.23-12.34,27.57-27.57,27.57s-27.57-12.34-27.57-27.57
				C984.29,40.26,996.63,27.91,1011.86,27.91"/>
			<path style="clip-path:url(#SVGID_00000177445543800413605840000006507687440387785376_);fill:#414247;" d="M1039.54,136.38
				c0-14.18-12.37-25.64-27.57-25.64c-15.2,0-27.57,11.46-27.57,25.64v98.26v71.25c0,14.18,12.37,25.64,27.57,25.64
				c15.2,0,27.57-11.46,27.57-25.64"/>
			<path style="clip-path:url(#SVGID_00000177445543800413605840000006507687440387785376_);fill:#33CCFF;" d="M469.63,27.91
				c15.23,0,27.57,12.34,27.57,27.57c0,15.23-12.34,27.57-27.57,27.57c-15.23,0-27.57-12.34-27.57-27.57
				C442.06,40.26,454.4,27.91,469.63,27.91"/>
			<path style="clip-path:url(#SVGID_00000177445543800413605840000006507687440387785376_);fill:#414247;" d="M497.2,136.38
				c0-14.18-12.37-25.64-27.57-25.64c-15.2,0-27.57,11.46-27.57,25.64v98.26v71.25c0,14.18,12.37,25.64,27.57,25.64
				c15.2,0,27.57-11.46,27.57-25.64"/>
			<path style="clip-path:url(#SVGID_00000177445543800413605840000006507687440387785376_);fill:#33CCFF;" d="M1809.83,111.3
				c-40.51,0-75.91,21.78-95.19,54.35c-19.29-32.56-54.46-54.35-94.97-54.35c-20.08,0-40.05,5.33-54.92,14.75V27.57
				c0-15.2-12.14-27.57-27.46-27.57c-15.2,0-27.46,12.37-27.46,27.57v112.1c23.71,20.2,36.08,49.47,36.08,82.03
				c0,22.58-6.92,43.57-18.61,61.04c19.74,29.84,53.55,49.47,92.02,49.47c40.51,0,75.91-21.78,95.08-54.35
				c19.29,32.56,54.57,54.35,95.08,54.35c61.04,0,110.51-49.47,110.51-110.51C1920.34,160.77,1870.87,111.3,1809.83,111.3
				 M1619.55,277.07c-30.52,0-55.26-24.73-55.26-55.25s24.73-55.25,55.26-55.25c30.52,0,55.26,24.73,55.26,55.25
				S1650.07,277.07,1619.55,277.07 M1809.83,277.07c-30.52,0-55.26-24.73-55.26-55.25s24.73-55.25,55.26-55.25
				c30.52,0,55.26,24.73,55.26,55.25S1840.35,277.07,1809.83,277.07"/>
		</g>
	</g>
</g>
</svg>
